<svg width="30" height="30" viewBox="0 0 30 30" fill="none" xmlns="http://www.w3.org/2000/svg">
<path d="M8.75 14C8.19772 14 7.75 14.4477 7.75 15C7.75 15.5523 8.19772 16 8.75 16L8.75 14ZM21.25 16C21.8023 16 22.25 15.5523 22.25 15C22.25 14.4477 21.8023 14 21.25 14V16ZM16 8.75C16 8.19772 15.5523 7.75 15 7.75C14.4477 7.75 14 8.19772 14 8.75H16ZM14 21.25C14 21.8023 14.4477 22.25 15 22.25C15.5523 22.25 16 21.8023 16 21.25H14ZM8.75 16L15 16V14L8.75 14L8.75 16ZM15 16L21.25 16V14L15 14V16ZM14 8.75V15H16V8.75H14ZM14 15L14 21.25H16L16 15H14Z" fill="white"/>
</svg>
