<svg width="25" height="25" viewBox="0 0 25 25" fill="none" xmlns="http://www.w3.org/2000/svg">
<path d="M5.20829 5.16667H9.37496V3.16667H5.20829V5.16667ZM9.41663 5.20834V9.375H11.4166V5.20834H9.41663ZM9.37496 9.41667H5.20829V11.4167H9.37496V9.41667ZM5.16663 9.375V5.20834H3.16663V9.375H5.16663ZM5.20829 9.41667C5.18528 9.41667 5.16663 9.39802 5.16663 9.375H3.16663C3.16663 10.5026 4.08071 11.4167 5.20829 11.4167V9.41667ZM9.41663 9.375C9.41663 9.39802 9.39797 9.41667 9.37496 9.41667V11.4167C10.5025 11.4167 11.4166 10.5026 11.4166 9.375H9.41663ZM9.37496 5.16667C9.39797 5.16667 9.41663 5.18533 9.41663 5.20834H11.4166C11.4166 4.08076 10.5025 3.16667 9.37496 3.16667V5.16667ZM5.20829 3.16667C4.08071 3.16667 3.16663 4.08076 3.16663 5.20834H5.16663C5.16663 5.18533 5.18528 5.16667 5.20829 5.16667V3.16667ZM5.20829 15.5833H9.37496V13.5833H5.20829V15.5833ZM9.41663 15.625V19.7917H11.4166V15.625H9.41663ZM9.37496 19.8333H5.20829V21.8333H9.37496V19.8333ZM5.16663 19.7917V15.625H3.16663V19.7917H5.16663ZM5.20829 19.8333C5.18528 19.8333 5.16663 19.8147 5.16663 19.7917H3.16663C3.16663 20.9193 4.08071 21.8333 5.20829 21.8333V19.8333ZM9.41663 19.7917C9.41663 19.8147 9.39797 19.8333 9.37496 19.8333V21.8333C10.5025 21.8333 11.4166 20.9193 11.4166 19.7917H9.41663ZM9.37496 15.5833C9.39797 15.5833 9.41663 15.602 9.41663 15.625H11.4166C11.4166 14.4974 10.5025 13.5833 9.37496 13.5833V15.5833ZM5.20829 13.5833C4.08071 13.5833 3.16663 14.4974 3.16663 15.625H5.16663C5.16663 15.602 5.18528 15.5833 5.20829 15.5833V13.5833ZM15.625 5.16667H19.7916V3.16667H15.625V5.16667ZM19.8333 5.20834V9.375H21.8333V5.20834H19.8333ZM19.7916 9.41667H15.625V11.4167H19.7916V9.41667ZM15.5833 9.375V5.20834H13.5833V9.375H15.5833ZM15.625 9.41667C15.6019 9.41667 15.5833 9.39802 15.5833 9.375H13.5833C13.5833 10.5026 14.4974 11.4167 15.625 11.4167V9.41667ZM19.8333 9.375C19.8333 9.39802 19.8146 9.41667 19.7916 9.41667V11.4167C20.9192 11.4167 21.8333 10.5026 21.8333 9.375H19.8333ZM19.7916 5.16667C19.8146 5.16667 19.8333 5.18533 19.8333 5.20834H21.8333C21.8333 4.08076 20.9192 3.16667 19.7916 3.16667V5.16667ZM15.625 3.16667C14.4974 3.16667 13.5833 4.08076 13.5833 5.20834H15.5833C15.5833 5.18533 15.6019 5.16667 15.625 5.16667V3.16667ZM15.625 15.5833H19.7916V13.5833H15.625V15.5833ZM19.8333 15.625V19.7917H21.8333V15.625H19.8333ZM19.7916 19.8333H15.625V21.8333H19.7916V19.8333ZM15.5833 19.7917V15.625H13.5833V19.7917H15.5833ZM15.625 19.8333C15.6019 19.8333 15.5833 19.8147 15.5833 19.7917H13.5833C13.5833 20.9193 14.4974 21.8333 15.625 21.8333V19.8333ZM19.8333 19.7917C19.8333 19.8147 19.8146 19.8333 19.7916 19.8333V21.8333C20.9192 21.8333 21.8333 20.9193 21.8333 19.7917H19.8333ZM19.7916 15.5833C19.8146 15.5833 19.8333 15.602 19.8333 15.625H21.8333C21.8333 14.4974 20.9192 13.5833 19.7916 13.5833V15.5833ZM15.625 13.5833C14.4974 13.5833 13.5833 14.4974 13.5833 15.625H15.5833C15.5833 15.602 15.6019 15.5833 15.625 15.5833V13.5833Z" fill="#0E002C"/>
</svg>
