<svg width="28" height="28" viewBox="0 0 28 28" fill="none" xmlns="http://www.w3.org/2000/svg">
<path d="M23.7855 8.35043L14.0002 14.0001L4.21094 8.34143" stroke="#0E002C" stroke-width="2" stroke-linecap="round" stroke-linejoin="round"/>
<path d="M14 14V24.5" stroke="#0E002C" stroke-width="2" stroke-linecap="round" stroke-linejoin="round"/>
<path d="M13.0002 2.91072C13.619 2.55346 14.3814 2.55346 15.0002 2.91072L23.1038 7.58936C23.7226 7.94662 24.1038 8.60688 24.1038 9.32141V18.6787C24.1038 19.3932 23.7226 20.0535 23.1038 20.4107L15.0002 25.0894C14.3814 25.4466 13.619 25.4466 13.0002 25.0894L4.89653 20.4107C4.27773 20.0535 3.89653 19.3932 3.89653 18.6787V9.32141C3.89653 8.60688 4.27773 7.94662 4.89653 7.58936L13.0002 2.91072Z" stroke="#0E002C" stroke-width="2" stroke-linecap="round" stroke-linejoin="round"/>
<path d="M9.9165 5.25L18.6665 10.5" stroke="#0E002C" stroke-width="2" stroke-linecap="round" stroke-linejoin="round"/>
</svg>
