<svg width="44" height="44" viewBox="0 0 44 44" fill="none" xmlns="http://www.w3.org/2000/svg">
<path d="M5.40909 34.2576V32.4545C5.40909 28.4714 8.63806 25.2424 12.6212 25.2424H19.8333C23.8165 25.2424 27.0455 28.4714 27.0455 32.4545V34.2576M27.0455 19.8333C30.0328 19.8333 32.4545 17.4116 32.4545 14.4242C32.4545 11.4369 30.0328 9.01514 27.0455 9.01514M37.8636 34.2576V32.4545C37.8636 28.4714 34.6347 25.2424 30.6515 25.2424H29.75M21.6364 14.4242C21.6364 17.4116 19.2146 19.8333 16.2273 19.8333C13.2399 19.8333 10.8182 17.4116 10.8182 14.4242C10.8182 11.4369 13.2399 9.01514 16.2273 9.01514C19.2146 9.01514 21.6364 11.4369 21.6364 14.4242Z" stroke="#0E002C" stroke-width="2" stroke-linecap="round" stroke-linejoin="round"/>
</svg>
