<svg width="15" height="15" viewBox="0 0 15 15" fill="none" xmlns="http://www.w3.org/2000/svg">
<path d="M8.6375 13.75H6.3625C6.06882 13.75 5.81472 13.5456 5.75188 13.2588L5.4975 12.0812C5.15816 11.9326 4.83639 11.7466 4.53813 11.5269L3.39 11.8925C3.11 11.9818 2.80562 11.8639 2.65875 11.6094L1.51875 9.64C1.37349 9.38532 1.42354 9.06405 1.63938 8.86563L2.53 8.05313C2.4895 7.68507 2.4895 7.31368 2.53 6.94562L1.63938 6.135C1.42322 5.93648 1.37315 5.61483 1.51875 5.36L2.65625 3.38938C2.80312 3.13481 3.1075 3.01696 3.3875 3.10625L4.53563 3.47188C4.68816 3.35885 4.84696 3.25452 5.01125 3.15938C5.16896 3.07043 5.33127 2.9899 5.4975 2.91812L5.7525 1.74188C5.81504 1.45498 6.06887 1.25031 6.3625 1.25H8.6375C8.93113 1.25031 9.18496 1.45498 9.2475 1.74188L9.505 2.91875C9.68049 2.99595 9.8514 3.08317 10.0169 3.18C10.1712 3.26926 10.3204 3.36712 10.4637 3.47312L11.6125 3.1075C11.8923 3.01854 12.1963 3.13635 12.3431 3.39062L13.4806 5.36125C13.6259 5.61593 13.5758 5.9372 13.36 6.13562L12.4694 6.94812C12.5099 7.31618 12.5099 7.68757 12.4694 8.05562L13.36 8.86813C13.5758 9.06655 13.6259 9.38782 13.4806 9.6425L12.3431 11.6131C12.1963 11.8674 11.8923 11.9852 11.6125 11.8963L10.4637 11.5306C10.3184 11.6377 10.1673 11.7368 10.0112 11.8275C9.84739 11.9224 9.67838 12.0082 9.505 12.0844L9.2475 13.2588C9.1847 13.5454 8.93094 13.7498 8.6375 13.75ZM4.7625 10.1431L5.275 10.5181C5.39053 10.6032 5.51095 10.6815 5.63563 10.7525C5.75294 10.8204 5.87373 10.8822 5.9975 10.9375L6.58062 11.1931L6.86625 12.5H8.135L8.42062 11.1925L9.00375 10.9369C9.25831 10.8246 9.49994 10.685 9.72437 10.5206L10.2375 10.1456L11.5131 10.5519L12.1475 9.45312L11.1581 8.55125L11.2281 7.91875C11.2589 7.6421 11.2589 7.3629 11.2281 7.08625L11.1581 6.45375L12.1481 5.55L11.5131 4.45062L10.2375 4.85687L9.72437 4.48188C9.49987 4.31669 9.25828 4.1761 9.00375 4.0625L8.42062 3.80688L8.135 2.5H6.86625L6.57938 3.8075L5.9975 4.0625C5.87363 4.1169 5.75282 4.17804 5.63563 4.24563C5.51171 4.31646 5.39193 4.39429 5.27687 4.47875L4.76375 4.85375L3.48875 4.4475L2.85313 5.55L3.8425 6.45063L3.7725 7.08375C3.74175 7.3604 3.74175 7.6396 3.7725 7.91625L3.8425 8.54875L2.85313 9.45063L3.4875 10.5494L4.7625 10.1431ZM7.4975 10C6.11679 10 4.9975 8.88071 4.9975 7.5C4.9975 6.11929 6.11679 5 7.4975 5C8.87821 5 9.9975 6.11929 9.9975 7.5C9.99578 8.88 8.8775 9.99828 7.4975 10ZM7.4975 6.25C6.81462 6.25069 6.25868 6.79928 6.24889 7.48209C6.23911 8.1649 6.7791 8.72919 7.46168 8.74945C8.14426 8.76971 8.71677 8.23844 8.7475 7.55625V7.80625V7.5C8.7475 6.80964 8.18786 6.25 7.4975 6.25Z" fill="#A2A2A2"/>
</svg>
