<svg width="19" height="19" viewBox="0 0 19 19" fill="none" xmlns="http://www.w3.org/2000/svg">
<path d="M3.95841 4.16675H7.12508V2.16675H3.95841V4.16675ZM6.91675 3.95841V7.12508H8.91675V3.95841H6.91675ZM7.12508 6.91675H3.95841V8.91675H7.12508V6.91675ZM4.16675 7.12508V3.95841H2.16675V7.12508H4.16675ZM3.95841 6.91675C4.07347 6.91675 4.16675 7.01002 4.16675 7.12508H2.16675C2.16675 8.11459 2.9689 8.91675 3.95841 8.91675V6.91675ZM6.91675 7.12508C6.91675 7.01002 7.01002 6.91675 7.12508 6.91675V8.91675C8.11459 8.91675 8.91675 8.11459 8.91675 7.12508H6.91675ZM7.12508 4.16675C7.01002 4.16675 6.91675 4.07347 6.91675 3.95841H8.91675C8.91675 2.9689 8.11459 2.16675 7.12508 2.16675V4.16675ZM3.95841 2.16675C2.9689 2.16675 2.16675 2.9689 2.16675 3.95841H4.16675C4.16675 4.07347 4.07347 4.16675 3.95841 4.16675V2.16675ZM3.95841 12.0834H7.12508V10.0834H3.95841V12.0834ZM6.91675 11.8751V15.0417H8.91675V11.8751H6.91675ZM7.12508 14.8334H3.95841V16.8334H7.12508V14.8334ZM4.16675 15.0417V11.8751H2.16675V15.0417H4.16675ZM3.95841 14.8334C4.07347 14.8334 4.16675 14.9267 4.16675 15.0417H2.16675C2.16675 16.0313 2.9689 16.8334 3.95841 16.8334V14.8334ZM6.91675 15.0417C6.91675 14.9267 7.01002 14.8334 7.12508 14.8334V16.8334C8.11459 16.8334 8.91675 16.0313 8.91675 15.0417H6.91675ZM7.12508 12.0834C7.01002 12.0834 6.91675 11.9901 6.91675 11.8751H8.91675C8.91675 10.8856 8.11459 10.0834 7.12508 10.0834V12.0834ZM3.95841 10.0834C2.9689 10.0834 2.16675 10.8856 2.16675 11.8751H4.16675C4.16675 11.9901 4.07347 12.0834 3.95841 12.0834V10.0834ZM11.8751 4.16675H15.0417V2.16675H11.8751V4.16675ZM14.8334 3.95841V7.12508H16.8334V3.95841H14.8334ZM15.0417 6.91675H11.8751V8.91675H15.0417V6.91675ZM12.0834 7.12508V3.95841H10.0834V7.12508H12.0834ZM11.8751 6.91675C11.9901 6.91675 12.0834 7.01002 12.0834 7.12508H10.0834C10.0834 8.11459 10.8856 8.91675 11.8751 8.91675V6.91675ZM14.8334 7.12508C14.8334 7.01002 14.9267 6.91675 15.0417 6.91675V8.91675C16.0313 8.91675 16.8334 8.11459 16.8334 7.12508H14.8334ZM15.0417 4.16675C14.9267 4.16675 14.8334 4.07347 14.8334 3.95841H16.8334C16.8334 2.9689 16.0313 2.16675 15.0417 2.16675V4.16675ZM11.8751 2.16675C10.8856 2.16675 10.0834 2.9689 10.0834 3.95841H12.0834C12.0834 4.07347 11.9901 4.16675 11.8751 4.16675V2.16675ZM11.8751 12.0834H15.0417V10.0834H11.8751V12.0834ZM14.8334 11.8751V15.0417H16.8334V11.8751H14.8334ZM15.0417 14.8334H11.8751V16.8334H15.0417V14.8334ZM12.0834 15.0417V11.8751H10.0834V15.0417H12.0834ZM11.8751 14.8334C11.9901 14.8334 12.0834 14.9267 12.0834 15.0417H10.0834C10.0834 16.0313 10.8856 16.8334 11.8751 16.8334V14.8334ZM14.8334 15.0417C14.8334 14.9267 14.9267 14.8334 15.0417 14.8334V16.8334C16.0313 16.8334 16.8334 16.0313 16.8334 15.0417H14.8334ZM15.0417 12.0834C14.9267 12.0834 14.8334 11.9901 14.8334 11.8751H16.8334C16.8334 10.8856 16.0313 10.0834 15.0417 10.0834V12.0834ZM11.8751 10.0834C10.8856 10.0834 10.0834 10.8856 10.0834 11.8751H12.0834C12.0834 11.9901 11.9901 12.0834 11.8751 12.0834V10.0834Z" fill="#0E002C"/>
</svg>
