<svg width="44" height="44" viewBox="0 0 44 44" fill="none" xmlns="http://www.w3.org/2000/svg">
<path d="M4.40918 34.7576C4.40918 35.3098 4.85689 35.7576 5.40918 35.7576C5.96146 35.7576 6.40918 35.3098 6.40918 34.7576H4.40918ZM26.0455 34.7576C26.0455 35.3098 26.4933 35.7576 27.0455 35.7576C27.5978 35.7576 28.0455 35.3098 28.0455 34.7576H26.0455ZM27.0455 19.3333C26.4933 19.3333 26.0455 19.781 26.0455 20.3333C26.0455 20.8856 26.4933 21.3333 27.0455 21.3333V19.3333ZM27.0455 8.51514C26.4933 8.51514 26.0455 8.96285 26.0455 9.51514C26.0455 10.0674 26.4933 10.5151 27.0455 10.5151V8.51514ZM36.8637 34.7576C36.8637 35.3098 37.3114 35.7576 37.8637 35.7576C38.416 35.7576 38.8637 35.3098 38.8637 34.7576H36.8637ZM29.7501 24.7424C29.1978 24.7424 28.7501 25.1901 28.7501 25.7424C28.7501 26.2947 29.1978 26.7424 29.7501 26.7424V24.7424ZM6.40918 34.7576V32.9545H4.40918V34.7576H6.40918ZM12.6213 26.7424H19.8334V24.7424H12.6213V26.7424ZM26.0455 32.9545V34.7576H28.0455V32.9545H26.0455ZM20.6365 14.9242C20.6365 17.3593 18.6624 19.3333 16.2274 19.3333V21.3333C19.767 21.3333 22.6365 18.4639 22.6365 14.9242H20.6365ZM16.2274 19.3333C13.7923 19.3333 11.8183 17.3593 11.8183 14.9242H9.81827C9.81827 18.4639 12.6877 21.3333 16.2274 21.3333V19.3333ZM11.8183 14.9242C11.8183 12.4892 13.7923 10.5151 16.2274 10.5151V8.51514C12.6877 8.51514 9.81827 11.3846 9.81827 14.9242H11.8183ZM16.2274 10.5151C18.6624 10.5151 20.6365 12.4892 20.6365 14.9242H22.6365C22.6365 11.3846 19.767 8.51514 16.2274 8.51514V10.5151ZM31.4546 14.9242C31.4546 17.3593 29.4806 19.3333 27.0455 19.3333V21.3333C30.5852 21.3333 33.4546 18.4639 33.4546 14.9242H31.4546ZM27.0455 10.5151C29.4806 10.5151 31.4546 12.4892 31.4546 14.9242H33.4546C33.4546 11.3846 30.5852 8.51514 27.0455 8.51514V10.5151ZM36.8637 32.9545V34.7576H38.8637V32.9545H36.8637ZM29.7501 26.7424H30.6516V24.7424H29.7501V26.7424ZM38.8637 32.9545C38.8637 28.4191 35.187 24.7424 30.6516 24.7424V26.7424C34.0825 26.7424 36.8637 29.5237 36.8637 32.9545H38.8637ZM19.8334 26.7424C23.2643 26.7424 26.0455 29.5237 26.0455 32.9545H28.0455C28.0455 28.4191 24.3689 24.7424 19.8334 24.7424V26.7424ZM6.40918 32.9545C6.40918 29.5237 9.19044 26.7424 12.6213 26.7424V24.7424C8.08587 24.7424 4.40918 28.4191 4.40918 32.9545H6.40918Z" fill="white"/>
</svg>
