<svg width="44" height="44" viewBox="0 0 44 44" fill="none" xmlns="http://www.w3.org/2000/svg">
<path d="M37.4865 13.405L22.3637 22.1363L7.23486 13.3911" stroke="white" stroke-width="2" stroke-linecap="round" stroke-linejoin="round"/>
<path d="M22.3638 22.1365V38.3637" stroke="white" stroke-width="2" stroke-linecap="round" stroke-linejoin="round"/>
<path d="M21.3636 4.68331C21.9824 4.32604 22.7448 4.32604 23.3636 4.68331L36.9783 12.5438C37.5971 12.901 37.9783 13.5613 37.9783 14.2758V29.9967C37.9783 30.7112 37.5971 31.3715 36.9783 31.7288L23.3636 39.5892C22.7448 39.9465 21.9824 39.9465 21.3636 39.5892L7.74885 31.7288C7.13005 31.3715 6.74885 30.7112 6.74885 29.9967V14.2758C6.74885 13.5613 7.13005 12.901 7.74885 12.5438L21.3636 4.68331Z" stroke="white" stroke-width="2" stroke-linecap="round" stroke-linejoin="round"/>
<path d="M16.053 8.61353L29.5757 16.7272" stroke="white" stroke-width="2" stroke-linecap="round" stroke-linejoin="round"/>
</svg>
