<svg width="44" height="44" viewBox="0 0 44 44" fill="none" xmlns="http://www.w3.org/2000/svg">
<path d="M9.74248 8.43945H16.9546V6.43945H9.74248V8.43945ZM17.7576 9.24248V16.4546H19.7576V9.24248H17.7576ZM16.9546 17.2576H9.74248V19.2576H16.9546V17.2576ZM8.93945 16.4546V9.24248H6.93945V16.4546H8.93945ZM9.74248 17.2576C9.29898 17.2576 8.93945 16.8981 8.93945 16.4546H6.93945C6.93945 18.0027 8.19441 19.2576 9.74248 19.2576V17.2576ZM17.7576 16.4546C17.7576 16.8981 17.3981 17.2576 16.9546 17.2576V19.2576C18.5027 19.2576 19.7576 18.0027 19.7576 16.4546H17.7576ZM16.9546 8.43945C17.3981 8.43945 17.7576 8.79898 17.7576 9.24248H19.7576C19.7576 7.69441 18.5027 6.43945 16.9546 6.43945V8.43945ZM9.74248 6.43945C8.19441 6.43945 6.93945 7.69441 6.93945 9.24248H8.93945C8.93945 8.79898 9.29898 8.43945 9.74248 8.43945V6.43945ZM9.74248 26.4698H16.9546V24.4698H9.74248V26.4698ZM17.7576 27.2728V34.4849H19.7576V27.2728H17.7576ZM16.9546 35.2879H9.74248V37.2879H16.9546V35.2879ZM8.93945 34.4849V27.2728H6.93945V34.4849H8.93945ZM9.74248 35.2879C9.29898 35.2879 8.93945 34.9284 8.93945 34.4849H6.93945C6.93945 36.033 8.19441 37.2879 9.74248 37.2879V35.2879ZM17.7576 34.4849C17.7576 34.9284 17.3981 35.2879 16.9546 35.2879V37.2879C18.5027 37.2879 19.7576 36.033 19.7576 34.4849H17.7576ZM16.9546 26.4698C17.3981 26.4698 17.7576 26.8293 17.7576 27.2728H19.7576C19.7576 25.7247 18.5027 24.4698 16.9546 24.4698V26.4698ZM9.74248 24.4698C8.19441 24.4698 6.93945 25.7247 6.93945 27.2728H8.93945C8.93945 26.8293 9.29898 26.4698 9.74248 26.4698V24.4698ZM27.7728 8.43945H34.9849V6.43945H27.7728V8.43945ZM35.7879 9.24248V16.4546H37.7879V9.24248H35.7879ZM34.9849 17.2576H27.7728V19.2576H34.9849V17.2576ZM26.9698 16.4546V9.24248H24.9698V16.4546H26.9698ZM27.7728 17.2576C27.3293 17.2576 26.9698 16.8981 26.9698 16.4546H24.9698C24.9698 18.0027 26.2247 19.2576 27.7728 19.2576V17.2576ZM35.7879 16.4546C35.7879 16.8981 35.4284 17.2576 34.9849 17.2576V19.2576C36.533 19.2576 37.7879 18.0027 37.7879 16.4546H35.7879ZM34.9849 8.43945C35.4284 8.43945 35.7879 8.79898 35.7879 9.24248H37.7879C37.7879 7.69441 36.533 6.43945 34.9849 6.43945V8.43945ZM27.7728 6.43945C26.2247 6.43945 24.9698 7.69441 24.9698 9.24248H26.9698C26.9698 8.79898 27.3293 8.43945 27.7728 8.43945V6.43945ZM27.7728 26.4698H34.9849V24.4698H27.7728V26.4698ZM35.7879 27.2728V34.4849H37.7879V27.2728H35.7879ZM34.9849 35.2879H27.7728V37.2879H34.9849V35.2879ZM26.9698 34.4849V27.2728H24.9698V34.4849H26.9698ZM27.7728 35.2879C27.3293 35.2879 26.9698 34.9284 26.9698 34.4849H24.9698C24.9698 36.033 26.2247 37.2879 27.7728 37.2879V35.2879ZM35.7879 34.4849C35.7879 34.9284 35.4284 35.2879 34.9849 35.2879V37.2879C36.533 37.2879 37.7879 36.033 37.7879 34.4849H35.7879ZM34.9849 26.4698C35.4284 26.4698 35.7879 26.8293 35.7879 27.2728H37.7879C37.7879 25.7247 36.533 24.4698 34.9849 24.4698V26.4698ZM27.7728 24.4698C26.2247 24.4698 24.9698 25.7247 24.9698 27.2728H26.9698C26.9698 26.8293 27.3293 26.4698 27.7728 26.4698V24.4698Z" fill="white"/>
</svg>
