<svg width="52" height="52" viewBox="0 0 52 52" fill="none" xmlns="http://www.w3.org/2000/svg">
<path d="M26 45.5C23.2633 43.1657 20.7267 40.6066 18.4166 37.8495C14.95 33.709 10.8333 27.5427 10.8333 21.6667C10.8302 15.5297 14.5258 9.99567 20.1956 7.64701C25.8654 5.29836 32.3918 6.59801 36.7293 10.9395C39.5816 13.7791 41.1795 17.6418 41.1667 21.6667C41.1667 27.5427 37.05 33.709 33.5833 37.8495C31.2732 40.6066 28.7366 43.1657 26 45.5ZM26 15.1667C23.6778 15.1667 21.5319 16.4055 20.3708 18.4167C19.2097 20.4278 19.2097 22.9055 20.3708 24.9167C21.5319 26.9278 23.6778 28.1667 26 28.1667C29.5898 28.1667 32.5 25.2565 32.5 21.6667C32.5 18.0768 29.5898 15.1667 26 15.1667Z" fill="white"/>
</svg>
