<svg width="168" height="168" viewBox="0 0 168 168" fill="none" xmlns="http://www.w3.org/2000/svg">
<path d="M142.712 50.1022L84.0001 84L25.2646 50.0482" stroke="#C0C0C0" stroke-width="10" stroke-linecap="round" stroke-linejoin="round"/>
<path d="M84 84V147" stroke="#C0C0C0" stroke-width="10" stroke-linecap="round" stroke-linejoin="round"/>
<path d="M83 14.5773C83.6188 14.2201 84.3812 14.2201 85 14.5774L143.622 48.4227C144.241 48.7799 144.622 49.4402 144.622 50.1547V117.845C144.622 118.56 144.241 119.22 143.622 119.577L85 153.423C84.3812 153.78 83.6188 153.78 83 153.423L24.3782 119.577C23.7594 119.22 23.3782 118.56 23.3782 117.845V50.1547C23.3782 49.4402 23.7594 48.7799 24.3782 48.4226L83 14.5773Z" stroke="#C0C0C0" stroke-width="10" stroke-linecap="round" stroke-linejoin="round"/>
<path d="M59.5 31.5L112 63" stroke="#C0C0C0" stroke-width="10" stroke-linecap="round" stroke-linejoin="round"/>
</svg>
