<svg width="94" height="27" viewBox="0 0 94 27" fill="none" xmlns="http://www.w3.org/2000/svg">
<path d="M4.60123 6.99438H0.267334V20.8121H4.60123V6.99438Z" fill="#50139E"/>
<path d="M2.43431 5.23089C3.77874 5.23089 4.86861 4.14473 4.86861 2.80489C4.86861 1.46506 3.77874 0.378906 2.43431 0.378906C1.08987 0.378906 0 1.46506 0 2.80489C0 4.14473 1.08987 5.23089 2.43431 5.23089Z" fill="#FF00C7"/>
<path d="M16.2338 6.67627C12.3247 6.67627 9.14429 9.84577 9.14429 13.7416V20.7923H13.4782V13.7416C13.4782 12.2273 14.7144 10.9954 16.2338 10.9954C17.7532 10.9954 18.9895 12.2273 18.9895 13.7416V20.7923H23.3233V13.7416C23.3233 9.84577 20.1429 6.67627 16.2338 6.67627Z" fill="#50139E"/>
<path d="M36.015 11.5904L38.1065 8.42938C36.4827 7.33472 35.1563 6.67627 32.8846 6.67627C30.9287 6.67627 27.6766 7.75124 27.6766 11.0521C27.6766 15.9853 34.1312 15.3163 34.1312 16.8221C34.1312 17.1948 33.7519 17.6227 32.8846 17.6227C32.0173 17.6227 30.0797 16.9416 29.2556 16.0353L27.1641 19.0031C27.1641 19.0031 29.2647 21.0825 32.9451 21.0825C36.6255 21.0825 38.4528 18.9311 38.4528 16.6587C38.4528 11.9275 31.9012 12.3872 31.9012 10.8588C31.9012 10.6474 31.9913 10.1548 32.8569 10.1548C33.7224 10.1548 34.5728 10.397 36.015 11.5904Z" fill="#50139E"/>
<path d="M49.8148 6.69116C45.9057 6.69116 42.7253 9.86067 42.7253 13.7565H47.0592C47.0592 12.2422 48.2954 11.0103 49.8148 11.0103C51.3342 11.0103 52.5704 12.2422 52.5704 13.7565V20.8072H56.9043V13.7565C56.9043 9.86067 53.7239 6.69116 49.8148 6.69116Z" fill="#50139E"/>
<path d="M47.0592 0H42.7253V20.8071H47.0592V0Z" fill="#FF00C7"/>
<path d="M47.0592 13.7565V7.24683C44.5149 8.3206 42.7253 10.8342 42.7253 13.7565" fill="#5C283F"/>
<path d="M68.0611 21.0994C64.0711 21.0994 60.825 17.8643 60.825 13.8878C60.825 9.91135 64.0711 6.67627 68.0611 6.67627C72.0515 6.67627 75.2978 9.91135 75.2978 13.8878C75.2978 17.8643 72.0515 21.0994 68.0611 21.0994ZM68.0611 10.9954C66.4608 10.9954 65.1588 12.2929 65.1588 13.8878C65.1588 15.4828 66.4608 16.7803 68.0611 16.7803C69.6617 16.7803 70.9633 15.4828 70.9633 13.8878C70.9633 12.2929 69.6617 10.9954 68.0611 10.9954Z" fill="#50139E"/>
<path d="M83.8609 6.97437H79.5271V26.3965H83.8609V6.97437Z" fill="#FF00C7"/>
<path d="M86.7638 21.0994C82.7734 21.0994 79.5271 17.8643 79.5271 13.8878C79.5271 9.91135 82.7734 6.67627 86.7638 6.67627C90.7542 6.67627 93.9999 9.91135 93.9999 13.8878C93.9999 17.8643 90.7542 21.0994 86.7638 21.0994ZM86.7638 10.9954C85.1632 10.9954 83.8609 12.2929 83.8609 13.8878C83.8609 15.4828 85.1632 16.7803 86.7638 16.7803C88.3644 16.7803 89.6661 15.4828 89.6661 13.8878C89.6661 12.2929 88.3644 10.9954 86.7638 10.9954Z" fill="#50139E"/>
<path d="M83.8609 20.4892V7.28638C81.3129 8.40357 79.5271 10.9402 79.5271 13.8877C79.5271 16.8353 81.3129 19.372 83.8609 20.4892Z" fill="#5C283F"/>
</svg>
